<svg xmlns="http://www.w3.org/2000/svg" width="77.309" height="65.936" viewBox="0 0 77.309 65.936">
  <g id="Group_76" data-name="Group 76" transform="translate(-433.456 -902.265)">
    <path id="Path_103" data-name="Path 103" d="M89,58c16,24-23,4-42,18S10,109,17,64,73,34,89,58Z" transform="translate(418 876)" fill="#f3f3f3"/>
    <g id="potion" transform="translate(379.733 902.265)">
      <path id="Path_108" data-name="Path 108" d="M95.442,21.454l1.386-11.087a1.915,1.915,0,0,0-1.51-2.113l1.468-5.872A1.917,1.917,0,0,0,94.926,0H82.608a1.917,1.917,0,0,0-1.859,2.382l1.468,5.872a1.915,1.915,0,0,0-1.51,2.113l1.386,11.087a24.5,24.5,0,0,0-7.409,43.621,1.917,1.917,0,0,0,1.1.35h25.963a1.917,1.917,0,0,0,1.1-.35,24.5,24.5,0,0,0-7.41-43.621ZM92.471,3.833,91.376,8.212H86.157L85.063,3.833Zm8.655,57.757H76.408a20.719,20.719,0,0,1-8.291-15.752,14.071,14.071,0,0,1,19.26.511l.035.036A17.908,17.908,0,0,0,109,49.238,20.74,20.74,0,0,1,101.126,61.591ZM91.692,45.03a14.085,14.085,0,0,1,16.734,0A14.085,14.085,0,0,1,91.692,45.03Zm-2.928-2.578a17.927,17.927,0,0,0-20.229-1.622A20.691,20.691,0,0,1,84.591,24.786a1.917,1.917,0,0,0,1.516-2.115L84.779,12.046h7.976L91.427,22.671a1.916,1.916,0,0,0,1.516,2.115A20.694,20.694,0,0,1,109,40.829a17.929,17.929,0,0,0-20.234,1.622Z" fill="#00a4ae" fill-rule="evenodd"/>
      <circle id="Ellipse_11" data-name="Ellipse 11" cx="1.917" cy="1.917" r="1.917" transform="translate(74.532 47.083)" fill="#00a4ae"/>
      <circle id="Ellipse_12" data-name="Ellipse 12" cx="1.917" cy="1.917" r="1.917" transform="translate(80.691 53.242)" fill="#00a4ae"/>
    </g>
  </g>
</svg>
