<svg xmlns="http://www.w3.org/2000/svg" width="100.749" height="100.715" viewBox="0 0 100.749 100.715">
  <g id="Group_74" data-name="Group 74" transform="translate(-1085.405 -883.421)">
    <g id="Group_72" data-name="Group 72">
      <path id="Path_101" data-name="Path 101" d="M51.757,43.451c18.158,27.238,26.33-2.724,33.593,11.8s-42.085,75.94-64.015,18.59S33.6,16.213,51.757,43.451Z" transform="translate(1056.186 936.598) rotate(-53)" fill="#f3f3f3"/>
      <g id="stethoscope" transform="translate(1092.006 895.993)">
        <path id="Path_104" data-name="Path 104" d="M66.255,6.1a8.562,8.562,0,0,0-6.892-3.434H58.206V2a1.992,1.992,0,0,0-3.984,0V7.312a1.992,1.992,0,0,0,3.984,0V6.648h1.157a4.648,4.648,0,0,1,4.47,5.925L58.545,31.08a12.094,12.094,0,0,1-23.257,0L30,12.573a4.648,4.648,0,0,1,4.47-5.925h1.157v.664a1.992,1.992,0,0,0,3.984,0V2a1.992,1.992,0,0,0-3.984,0v.664H34.47a8.633,8.633,0,0,0-8.3,11l5.288,18.506a15.957,15.957,0,0,0,5.777,8.419,16.291,16.291,0,0,0,1.88,1.222l5.81,13.714v1.438a7.056,7.056,0,0,1-14.112,0V43.3a11.422,11.422,0,1,0-22.844,0V48.02a9.961,9.961,0,1,0,3.984,0V43.3a7.438,7.438,0,1,1,14.875,0V56.967a11.04,11.04,0,0,0,22.081,0V55.529l5.81-13.714a16.278,16.278,0,0,0,1.88-1.222,15.956,15.956,0,0,0,5.777-8.419l5.288-18.506A8.562,8.562,0,0,0,66.255,6.1ZM15.937,57.78A5.977,5.977,0,1,1,9.961,51.8,5.983,5.983,0,0,1,15.937,57.78Zm30.979-7.763L44.2,43.606a16.227,16.227,0,0,0,5.433,0Z" fill="#00a4ae"/>
        <circle id="Ellipse_10" data-name="Ellipse 10" cx="2" cy="2" r="2" transform="translate(7.994 56.007)" fill="#00a4ae"/>
      </g>
    </g>
  </g>
</svg>
