<svg xmlns="http://www.w3.org/2000/svg" width="76.41" height="62.201" viewBox="0 0 76.41 62.201">
  <g id="Group_75" data-name="Group 75" transform="translate(-751.682 -901.799)">
    <path id="Path_102" data-name="Path 102" d="M61,90C14,102-4,65,18,38c11.286-13.851,23.432,6.165,37,22C87,59,100,71,61,90Z" transform="translate(743 871)" fill="#f3f3f3"/>
    <g id="medical-history" transform="translate(709.953 901.799)">
      <path id="Path_116" data-name="Path 116" d="M101.864,4.009H97.577V3.133A3.137,3.137,0,0,0,94.443,0H67.908a3.137,3.137,0,0,0-3.133,3.133v.876H60.488A3.492,3.492,0,0,0,57,7.5V58.713A3.492,3.492,0,0,0,60.488,62.2h41.376a3.492,3.492,0,0,0,3.488-3.488V7.5A3.492,3.492,0,0,0,101.864,4.009ZM68.42,3.645H93.932V7.9H68.42Zm33.287,54.912H60.645V7.654h4.131v.754a3.137,3.137,0,0,0,3.133,3.133H94.443a3.137,3.137,0,0,0,3.133-3.133V7.654h4.131Z" transform="translate(0 0)" fill="#00a4ae"/>
      <path id="Path_117" data-name="Path 117" d="M191.8,152.429a1.822,1.822,0,0,0,3.645,0v-4.981h4.981a1.822,1.822,0,0,0,0-3.645h-4.981v-4.981a1.822,1.822,0,0,0-3.645,0V143.8h-4.981a1.822,1.822,0,1,0,0,3.645H191.8Z" transform="translate(-112.45 -120.356)" fill="#00a4ae"/>
      <path id="Path_118" data-name="Path 118" d="M126.71,313h-3.888a1.822,1.822,0,1,0,0,3.645h3.888a1.822,1.822,0,1,0,0-3.645Z" transform="translate(-56.225 -274.975)" fill="#00a4ae"/>
      <path id="Path_119" data-name="Path 119" d="M126.71,377h-3.888a1.822,1.822,0,1,0,0,3.645h3.888a1.822,1.822,0,1,0,0-3.645Z" transform="translate(-56.225 -331.199)" fill="#00a4ae"/>
      <path id="Path_120" data-name="Path 120" d="M243.344,313H226.822a1.822,1.822,0,1,0,0,3.645h16.522a1.822,1.822,0,0,0,0-3.645Z" transform="translate(-147.59 -274.975)" fill="#00a4ae"/>
      <path id="Path_121" data-name="Path 121" d="M243.344,377H226.822a1.822,1.822,0,1,0,0,3.645h16.522a1.822,1.822,0,0,0,0-3.645Z" transform="translate(-147.59 -331.199)" fill="#00a4ae"/>
    </g>
  </g>
</svg>
