<svg xmlns="http://www.w3.org/2000/svg" width="95.766" height="63.168" viewBox="0 0 95.766 63.168">
  <g id="Group_73" data-name="Group 73" transform="translate(-1408 -895.832)">
    <g id="Group_71" data-name="Group 71">
      <path id="Path_100" data-name="Path 100" d="M86,32c23,23,23,38.5-14.5,35.5s-60,30-59,4.5S63,9,86,32Z" transform="translate(1402 871)" fill="#f3f3f3"/>
      <g id="password" transform="translate(1408 803.335)">
        <g id="Group_8" data-name="Group 8" transform="translate(0 106.666)">
          <g id="Group_7" data-name="Group 7" transform="translate(0 0)">
            <path id="Path_95" data-name="Path 95" d="M54.845,173.292a1.752,1.752,0,0,0-2.391-.641l-.407.235v-.469a1.75,1.75,0,1,0-3.5,0v.469l-.407-.235a1.75,1.75,0,1,0-1.75,3.032l.406.234-.406.234a1.75,1.75,0,0,0,1.75,3.032l.407-.235v.469a1.75,1.75,0,1,0,3.5,0v-.469l.407.235a1.75,1.75,0,0,0,1.75-3.032l-.406-.234.406-.234A1.75,1.75,0,0,0,54.845,173.292Z" transform="translate(-38.048 -160.167)" fill="#00a4ae"/>
            <path id="Path_96" data-name="Path 96" d="M140.179,173.292a1.752,1.752,0,0,0-2.391-.641l-.407.235v-.469a1.75,1.75,0,1,0-3.5,0v.469l-.407-.235a1.75,1.75,0,1,0-1.75,3.032l.406.234-.406.234a1.75,1.75,0,0,0,1.75,3.032l.407-.235v.469a1.75,1.75,0,1,0,3.5,0v-.469l.407.235a1.75,1.75,0,0,0,1.75-3.032l-.406-.234.406-.234A1.75,1.75,0,0,0,140.179,173.292Z" transform="translate(-109.382 -160.167)" fill="#00a4ae"/>
            <path id="Path_97" data-name="Path 97" d="M225.512,173.291a1.751,1.751,0,0,0-2.391-.641l-.407.235v-.469a1.75,1.75,0,1,0-3.5,0v.469l-.407-.235a1.75,1.75,0,0,0-1.75,3.032l.406.234-.406.234a1.75,1.75,0,0,0,1.75,3.032l.407-.235v.469a1.75,1.75,0,1,0,3.5,0v-.469l.407.235a1.75,1.75,0,0,0,1.75-3.032l-.406-.234.406-.234A1.75,1.75,0,0,0,225.512,173.291Z" transform="translate(-180.715 -160.166)" fill="#00a4ae"/>
            <path id="Path_98" data-name="Path 98" d="M80.5,131.166v-1.75A12.2,12.2,0,0,0,77,120.87v-7.2a7.007,7.007,0,0,0-7-7H7a7.007,7.007,0,0,0-7,7v17.5a7.007,7.007,0,0,0,7,7H52.5v14a3.5,3.5,0,0,0,3.5,3.5H80.5a3.5,3.5,0,0,0,3.5-3.5v-17.5A3.5,3.5,0,0,0,80.5,131.166Zm-3.5-1.75v1.75H59.5v-1.75a8.75,8.75,0,0,1,17.5,0Zm-24.5,5.25H7a3.5,3.5,0,0,1-3.5-3.5v-17.5a3.5,3.5,0,0,1,3.5-3.5H70a3.5,3.5,0,0,1,3.5,3.5v4.729a12.109,12.109,0,0,0-5.25-1.229A12.245,12.245,0,0,0,58.077,122.6l-.326-.188.406-.234a1.75,1.75,0,1,0-1.75-3.032l-.407.235v-.469a1.75,1.75,0,0,0-3.5,0v.469l-.407-.235a1.75,1.75,0,1,0-1.75,3.032l.406.234-.406.234a1.75,1.75,0,0,0,1.75,3.032l.407-.235v.469a1.75,1.75,0,1,0,3.5,0v-.469l.407.235c.069.04.147.029.219.059A12.078,12.078,0,0,0,56,129.416v1.75A3.5,3.5,0,0,0,52.5,134.666Zm28,17.5H56v-17.5H80.5v17.5Z" transform="translate(0 -106.666)" fill="#00a4ae"/>
            <path id="Path_99" data-name="Path 99" d="M396.418,305.129v2.288a1.75,1.75,0,0,0,3.5,0v-2.288a3.454,3.454,0,0,0,1.75-2.962,3.5,3.5,0,1,0-7,0A3.453,3.453,0,0,0,396.418,305.129Z" transform="translate(-329.919 -267.167)" fill="#00a4ae"/>
          </g>
        </g>
      </g>
    </g>
  </g>
</svg>
