<svg xmlns="http://www.w3.org/2000/svg" width="399" height="411.457" viewBox="0 0 399 411.457">
  <g id="Group_753" data-name="Group 753" transform="translate(-540 -337.575)">
    <path id="Path_390" data-name="Path 390" d="M109.374-89.822S21.958,45.727,11.082,60.992s-6.774,33.241,0,44.211l26.245,41.912H88.859c12.078,0,20.516-8.969,20.516-20.812Z" transform="translate(687.115 639.657) rotate(90)" fill="#d1d1d1" opacity="0.2"/>
    <g id="Group_71" data-name="Group 71" transform="translate(539.585 225.033)">
      <g id="Group_112" data-name="Group 112" transform="translate(48.415 113.967)">
        <g id="Group_72" data-name="Group 72" transform="translate(45.639 263.09)">
          <rect id="Rectangle_74" data-name="Rectangle 74" width="2.283" height="6.631" transform="translate(6.99 1.646) rotate(104.376)" fill="#5793ce"/>
          <rect id="Rectangle_75" data-name="Rectangle 75" width="2.283" height="6.631" transform="translate(10.267 4.843) rotate(104.373)" fill="#5793ce"/>
          <rect id="Rectangle_76" data-name="Rectangle 76" width="2.283" height="6.631" transform="translate(13.544 8.039) rotate(104.373)" fill="#5793ce"/>
          <rect id="Rectangle_77" data-name="Rectangle 77" width="2.283" height="6.631" transform="matrix(-0.248, 0.969, -0.969, -0.248, 16.82, 11.235)" fill="#5793ce"/>
        </g>
        <g id="Group_100" data-name="Group 100" transform="translate(0 2.575)">
          <path id="Path_317" data-name="Path 317" d="M316.51,137.13,376.8,172.5c15.285-4.691,34.759-3.241,47.609,4.3,15.635,9.173,15.532,23.869-.23,32.823a48.1,48.1,0,0,1-11.86,4.651,63.269,63.269,0,0,1-9.425,1.626c-12.538,1.22-25.92-1.016-35.566-6.675-11.684-6.856-14.575-16.793-8.714-25.116l-8.319-4.881.236-5.282-8.754-.061.221-4.945-8.755-.061.221-4.947-8.755-.061.221-4.945-8.754-.061.22-4.947-9.346-.066-2.852-1.672L301.045,139.2Zm84.836,67.679a16.361,16.361,0,0,0,14.8.1c4.1-2.332,4.131-6.157.06-8.545a16.361,16.361,0,0,0-14.8-.1C397.3,198.6,397.276,202.421,401.345,204.809Z" transform="translate(-128.734 -73.834)" fill="#c4d9e8"/>
          <path id="Path_318" data-name="Path 318" d="M463,341.83,544.3,295.082c5.474-3.161,4.787-8.681-1.534-12.33l-78.912-45.56c-6.321-3.65-15.883-4.046-21.357-.885l-81.305,46.748c-5.474,3.161-4.787,8.68,1.532,12.33l78.913,45.56C447.961,344.594,457.523,344.99,463,341.83Z" transform="translate(-308.201 -54.788)" fill="#c4d9e8"/>
          <g id="Group_75" data-name="Group 75" transform="translate(0 94.79)">
            <g id="Group_73" data-name="Group 73">
              <path id="Path_319" data-name="Path 319" d="M492.529,249.721l14.057-8.115-51.827-29.922c-2.448-1.414-2.448-3.713,0-5.126L507.7,175.989a9.822,9.822,0,0,1,8.879,0l51.827,29.922,14.056-8.115-51.827-29.922c-10.2-5.888-26.793-5.888-36.991,0L440.7,198.442c-10.2,5.888-10.2,15.469,0,21.357Z" transform="translate(-433.054 -163.458)" fill="#5793ce"/>
            </g>
            <g id="Group_74" data-name="Group 74" transform="translate(36.793 14.905)">
              <path id="Path_320" data-name="Path 320" d="M340.918,250.849c0-7.515,4.569-16.244,10.205-19.5l93.9-54.214c2.524-1.457,4.831-1.56,6.612-.565l0,0,112.117,65.151-108.42,81.7L344.88,259.308a5.114,5.114,0,0,1-.976-.566h0C342.059,257.343,340.918,254.6,340.918,250.849Z" transform="translate(-340.918 -175.917)" fill="#d4ecff"/>
              <path id="Path_321" data-name="Path 321" d="M534.062,312.9,423.606,248.8a5.114,5.114,0,0,1-.976-.566h0c-1.843-1.4-2.985-4.138-2.985-7.892a25.036,25.036,0,0,1,2.75-10.86l125.911,72.695Z" transform="translate(-419.644 -165.405)" fill="#173d7a"/>
              <path id="Path_322" data-name="Path 322" d="M348.827,312.535l93.9-54.214c5.636-3.254,10.2-11.984,10.2-19.5h0c0-7.515-4.569-10.969-10.2-7.715l-93.9,54.214c-5.636,3.254-10.2,11.983-10.2,19.5h0C338.623,312.335,343.192,315.789,348.827,312.535Z" transform="translate(-227.349 -165.325)" fill="#5793ce"/>
            </g>
            <path id="Path_323" data-name="Path 323" d="M404.787,285.689l11.289-6.512a4.871,4.871,0,0,0,2.035-3.887h0c0-1.5-.912-2.186-2.035-1.537l-11.289,6.512a4.872,4.872,0,0,0-2.034,3.887h0C402.753,285.65,403.663,286.338,404.787,285.689Z" transform="translate(-232.45 -141.858)" fill="#fff"/>
          </g>
          <g id="Group_99" data-name="Group 99" transform="translate(173.883 -4)">
            <g id="Group_98" data-name="Group 98" transform="translate(0)">
              <path id="Path_324" data-name="Path 324" d="M431.253,131.594,411.96,142.553,392.275,131l.052-5.024.168.1.016-.355-8.755-.061.052-4.947-8.585-.06.051-4.947-8.585-.06.051-4.947-8.585-.06.051-4.947-9.178-.064-2.852-1.673L343.029,90.97l.052-5.024L344.6,90.76,358.493,88.9Z" transform="translate(-343.029 -83.88)" fill="#396caa"/>
              <g id="Group_97" data-name="Group 97" transform="translate(0.052)">
                <g id="Group_96" data-name="Group 96" transform="translate(0)">
                  <g id="Group_91" data-name="Group 91" transform="translate(0)">
                    <g id="Group_77" data-name="Group 77">
                      <g id="Group_76" data-name="Group 76">
                        <path id="Path_325" data-name="Path 325" d="M411.916,137.867l-19.686-11.55.236-5.281-8.755-.061.221-4.945-8.755-.061.221-4.946-8.755-.061.221-4.946-8.755-.061.221-4.946-9.348-.066-2.852-1.673-3.147-12.986,15.464-2.066,72.759,42.689Z" transform="translate(-342.985 -84.219)" fill="#d4ecff"/>
                      </g>
                    </g>
                    <g id="Group_79" data-name="Group 79" transform="translate(55.822 34.347)">
                      <g id="Group_78" data-name="Group 78" transform="translate(0)">
                        <path id="Path_326" data-name="Path 326" d="M342.985,124.541a27.125,27.125,0,0,1,8.942-7.709,46.152,46.152,0,0,1,9.241-3.9l14.219,8.342-19.292,10.959Z" transform="translate(-342.985 -112.931)" fill="#396caa"/>
                      </g>
                    </g>
                    <g id="Group_81" data-name="Group 81" transform="translate(0 1.719)">
                      <g id="Group_80" data-name="Group 80">
                        <path id="Path_327" data-name="Path 327" d="M363.7,88.182,363.176,86l2.595-.347,61.475,36.069-3.238,1.839Z" transform="translate(-363.176 -85.656)" fill="#5793ce"/>
                      </g>
                    </g>
                    <g id="Group_83" data-name="Group 83" transform="translate(132.727 56.421)">
                      <g id="Group_82" data-name="Group 82" transform="translate(0)">
                        <path id="Path_328" data-name="Path 328" d="M305.946,138.525l.212-7.142-2.286,4.824Z" transform="translate(-303.872 -131.383)" fill="#d3d0cf"/>
                      </g>
                    </g>
                    <path id="Path_329" data-name="Path 329" d="M372.553,157.318c-15.762,8.954-41.215,8.777-56.85-.4-7.839-4.6-11.72-10.587-11.656-16.542v0l.219-7.568,1.285,1.432c1.814-3.73,5.27-7.242,10.385-10.148,15.763-8.954,41.215-8.776,56.85.4S388.317,148.365,372.553,157.318Zm-22.769-13.359c-4.1,2.332-4.131,6.157-.06,8.545a16.361,16.361,0,0,0,14.8.1c4.1-2.332,4.131-6.157.06-8.545A16.353,16.353,0,0,0,349.785,143.959Z" transform="translate(-249.638 -77.687)" fill="#396caa"/>
                    <g id="Group_85" data-name="Group 85" transform="translate(54.619 32.672)">
                      <g id="Group_84" data-name="Group 84">
                        <path id="Path_330" data-name="Path 330" d="M372.378,151.351c-15.763,8.954-41.216,8.776-56.851-.4s-15.531-23.869.231-32.823,41.215-8.776,56.85.4S388.14,142.4,372.378,151.351Zm-22.77-13.359c-4.1,2.33-4.131,6.156-.06,8.545a16.357,16.357,0,0,0,14.8.1c4.1-2.33,4.131-6.156.06-8.545A16.357,16.357,0,0,0,349.608,137.992Z" transform="translate(-303.868 -111.531)" fill="#f2f2f2"/>
                      </g>
                    </g>
                    <path id="Path_331" data-name="Path 331" d="M304.05,151.658a16.142,16.142,0,0,0,10.034-1.482c2.943-1.672,3.777-4.11,2.519-6.239l7.141-5.662s3.732-4.211,7.428-8.386c5.749,8.4,2.723,18.3-9.059,25a49.685,49.685,0,0,1-17.627,5.6Z" transform="translate(-199.197 -75.255)" fill="#5793ce"/>
                    <g id="Group_87" data-name="Group 87" transform="translate(54.619 32.672)">
                      <g id="Group_86" data-name="Group 86">
                        <path id="Path_332" data-name="Path 332" d="M372.378,151.351A48,48,0,0,1,360.518,156a63.109,63.109,0,0,1-9.425,1.627c-12.538,1.22-25.92-1.016-35.566-6.675-15.635-9.174-15.531-23.869.231-32.823s41.215-8.776,56.85.4S388.14,142.4,372.378,151.351Zm-22.77-13.359c-4.1,2.33-4.131,6.156-.06,8.545a16.357,16.357,0,0,0,14.8.1c4.1-2.33,4.131-6.156.06-8.545A16.357,16.357,0,0,0,349.608,137.992Z" transform="translate(-303.868 -111.531)" fill="#d4ecff"/>
                      </g>
                    </g>
                    <g id="Group_90" data-name="Group 90" transform="translate(59.061 35.232)">
                      <g id="Group_89" data-name="Group 89" transform="translate(0)">
                        <g id="Group_88" data-name="Group 88">
                          <path id="Path_333" data-name="Path 333" d="M379.1,134.668c-.767-4.575-4.158-9.044-10.2-12.587-13.911-8.162-36.557-8.32-50.581-.354-6.969,3.96-10.49,9.18-10.57,14.432-1-5.963,2.467-12.107,10.4-16.615,14.024-7.967,36.67-7.808,50.581.353C375.729,124,379.175,129.352,379.1,134.668Z" transform="translate(-307.58 -113.67)" fill="#396caa"/>
                        </g>
                      </g>
                    </g>
                  </g>
                  <g id="Group_95" data-name="Group 95" transform="translate(103.804 54.991)">
                    <g id="Group_94" data-name="Group 94" transform="translate(0)">
                      <g id="Group_93" data-name="Group 93" transform="translate(0)">
                        <g id="Group_92" data-name="Group 92">
                          <path id="Path_334" data-name="Path 334" d="M321.918,196.392a15.77,15.77,0,0,0,7.887-2.035c5.649-3.2,8.793-9.647,8.849-18.139.111-15.488-10.669-34.467-24.031-42.307-7.32-4.3-14.462-4.9-20.11-1.687a15.8,15.8,0,0,0-5.847,5.847,24.346,24.346,0,0,0-3,12.293c-.11,15.488,10.672,34.468,24.033,42.307A24.428,24.428,0,0,0,321.918,196.392Zm-19.505-60.511a18.821,18.821,0,0,1,9.334,2.932c11.8,6.923,21.322,23.685,21.224,37.367-.043,6.375-2.164,11.075-5.972,13.235s-8.929,1.579-14.427-1.646c-11.8-6.923-21.322-23.685-21.227-37.367a19.065,19.065,0,0,1,2.22-9.454h0a9.874,9.874,0,0,1,8.846-5.067Z" transform="translate(-285.663 -130.188)" fill="#396caa"/>
                        </g>
                      </g>
                    </g>
                  </g>
                </g>
              </g>
            </g>
            <path id="Path_335" data-name="Path 335" d="M333.352,146.371l-11.222,2.75-1.611-8.327a16.357,16.357,0,0,0,14.8.1Z" transform="translate(-220.166 -73.115)" fill="#d4ecff"/>
            <path id="Path_336" data-name="Path 336" d="M370.657,145.052A48,48,0,0,1,358.8,149.7a63.11,63.11,0,0,1-9.425,1.627c-12.538,1.22-25.919-1.016-35.566-6.675l45.7-1.026Z" transform="translate(-247.475 -72.559)" fill="#d4ecff"/>
            <path id="Path_337" data-name="Path 337" d="M324.186,150.061a66.359,66.359,0,0,0,9.925-2.558v7.013a54.439,54.439,0,0,1-9.8,2.513C313.843,158.411,324.186,150.061,324.186,150.061Z" transform="translate(-217.891 -71.798)" fill="#396caa"/>
          </g>
          <path id="Path_338" data-name="Path 338" d="M314.46,148.682a46.554,46.554,0,0,0,6.465-2.385c6.113-2.861-1.62,7.74-1.62,7.74s-2.083.83-4.845,1.677Z" transform="translate(-31.994 -72.131)" fill="#5793ce"/>
        </g>
        <path id="Path_339" data-name="Path 339" d="M392.819,251.219l20,12.9,9.733-1.581-23.775-11.493Z" transform="translate(-225.003 -48.903)" fill="#5793ce"/>
        <g id="Group_105" data-name="Group 105" transform="translate(126.111 27.795)">
          <g id="Group_102" data-name="Group 102">
            <path id="Path_340" data-name="Path 340" d="M386.955,305.775s5.759-2.9,9.3,1.42,8.594,14.536,8.751,21.435-5.46,6.432-8.8,4.8-13.091-15.779-13.682-18.55.7-6.521,1.635-7.254S386.955,305.775,386.955,305.775Z" transform="translate(-321.075 -66.143)" fill="#173d7a"/>
            <path id="Path_341" data-name="Path 341" d="M389.666,304.684l-.267,5.967a3.385,3.385,0,0,0,1.687,3.1,6.637,6.637,0,0,0,4.443.69c4.339-.7,4.725-1.937,5.036-7.9S389.666,304.684,389.666,304.684Z" transform="translate(-325.044 -66.44)" fill="#5793ce"/>
            <g id="Group_101" data-name="Group 101" transform="translate(34.191 105.866)">
              <path id="Path_342" data-name="Path 342" d="M369.331,296.184s5.759-2.9,9.3,1.42,8.594,14.535,8.751,21.434-5.46,6.434-8.8,4.8-13.091-15.779-13.682-18.552.7-6.52,1.635-7.253S369.331,296.184,369.331,296.184Z" transform="translate(-316.559 -173.891)" fill="#173d7a"/>
              <path id="Path_343" data-name="Path 343" d="M372.042,295.093l-.267,5.967a3.385,3.385,0,0,0,1.687,3.1,6.644,6.644,0,0,0,4.443.69c4.339-.7,4.726-1.937,5.036-7.9S372.042,295.093,372.042,295.093Z" transform="translate(-320.527 -174.188)" fill="#5793ce"/>
              <path id="Path_344" data-name="Path 344" d="M364.3,205.15c1.7-27.737,30.038,4.081,30.038,4.081l19.391,19.007L431.2,247.422a17.212,17.212,0,0,1,4.338,13.828l-7.064,53.789a5.286,5.286,0,0,1-5.3,4.594,17.84,17.84,0,0,1-2.616-.229,6.571,6.571,0,0,1-5.837-6.973l1.291-50.309-36.673-22.107S362.6,232.887,364.3,205.15Z" transform="translate(-364.183 -193.799)" fill="#d4ecff"/>
            </g>
            <path id="Path_345" data-name="Path 345" d="M380.629,243.278l5.218-1.916c.122,0,8.871,8.462,8.795,11.424l-3.926,1.26-9.857-9.569Z" transform="translate(-308.626 -78.597)" fill="#5793ce"/>
            <path id="Path_346" data-name="Path 346" d="M436,255.28s-21.794-12.444-24.4-17.66c-1.022-2.043-2.609-4.179,3.75-7.266l29.064,20.718-1.26,7.133Z" transform="translate(-394.292 -80.758)" fill="#5793ce"/>
            <path id="Path_347" data-name="Path 347" d="M381.923,214.1c1.817-27.729,30.038,4.082,30.038,4.082l19.391,19.007,17.463,19.182a17.215,17.215,0,0,1,4.338,13.828l-7.065,53.79a5.285,5.285,0,0,1-5.3,4.594,18.016,18.016,0,0,1-2.616-.229,6.572,6.572,0,0,1-5.837-6.974l1.291-50.308-36.673-22.107S380.261,239.449,381.923,214.1Z" transform="translate(-368.693 -86.176)" fill="#d4ecff"/>
            <path id="Path_348" data-name="Path 348" d="M413.87,138.2c-21.481,8.905-21.051,21.6-21.051,21.6s4.208,46.552,2.772,77.64c-.6,13,69.051,13.989,58.664-20.685-12.247-40.882-7.656-73.98-13.39-78.97S419.427,135.9,413.87,138.2Z" transform="translate(-383.879 -99.451)" fill="#5793ce"/>
            <path id="Path_349" data-name="Path 349" d="M415.333,148.931c1.123,4.362,6.838,6.661,12.763,5.134s9.818-6.3,8.694-10.661-6.838-6.66-12.763-5.133S414.209,144.571,415.333,148.931Z" transform="translate(-392.252 -98.923)" fill="#ffc2b0"/>
            <path id="Path_350" data-name="Path 350" d="M424.638,155.727a15.586,15.586,0,0,0,3.882-.5,14.3,14.3,0,0,0,7.532-4.613,8.2,8.2,0,0,0,1.9-7.3c-1.261-4.9-7.55-7.54-14.013-5.872a14.3,14.3,0,0,0-7.531,4.614,8.2,8.2,0,0,0-1.9,7.3C415.512,153.261,419.707,155.727,424.638,155.727Zm3.234-16.736c3.99,0,7.326,1.857,8.094,4.838a6.217,6.217,0,0,1-1.506,5.488,12.233,12.233,0,0,1-6.45,3.921c-5.368,1.378-10.532-.589-11.513-4.394A6.217,6.217,0,0,1,418,143.356a12.223,12.223,0,0,1,6.45-3.923A13.775,13.775,0,0,1,427.871,138.991Z" transform="translate(-392.421 -99.091)" fill="#fff"/>
            <path id="Path_351" data-name="Path 351" d="M430.873,137.586s-.187.861.185,7.668c.117,2.14-7.376,4.139-9.313,2.2s-1.162-3.951-1.627-11.234S430.873,137.586,430.873,137.586Z" transform="translate(-392.269 -99.805)" fill="#ffc2b0"/>
            <path id="Path_352" data-name="Path 352" d="M420.105,135.744s1.846,6.753,10.941,9.343l-.138-6.138Z" transform="translate(-392.255 -99.327)" fill="#ea9c92"/>
            <path id="Path_353" data-name="Path 353" d="M407.391,123.436a16.535,16.535,0,1,0,20.148-11.869A16.535,16.535,0,0,0,407.391,123.436Z" transform="translate(-385.303 -104.176)" fill="#ffc2b0"/>
            <path id="Path_355" data-name="Path 355" d="M433.906,130.335s-7.93-3.366-14.888-1.963a7.288,7.288,0,0,0-4.2,2.5,2.482,2.482,0,0,1-1.273.92c-1.233.28-3.253-4.839-5.651-4.955s-4,1.58-2.031,4.729,1.3,6.67.4,7.175-10.5-6.844-2.036-23.611,29.964-7.736,33.309-4.338c0,0,3.523,3.068,6.387.337C443.915,111.129,448.161,124.986,433.906,130.335Z" transform="translate(-397.208 -40.685) rotate(-9)" fill="#00a4ae"/>
            <path id="Path_356" data-name="Path 356" d="M426.667,185.358v12.579a5.127,5.127,0,0,0,1.672,3.787l25.841,23.558-2.936,4.491-34.125-24.75a6.935,6.935,0,0,1-2.827-4.889L411.986,178.2Z" transform="translate(-405.676 -90.995)" fill="#ffc2b0"/>
            <path id="Path_357" data-name="Path 357" d="M444.168,150.495s-7.839,11.789-10.759,42.823c0,0,13.391,4.331,20.991,1.872S444.168,150.495,444.168,150.495Z" transform="translate(-433.409 -96.432)" fill="#5793ce"/>
            <path id="Path_358" data-name="Path 358" d="M431.076,162.956s3.07,16.425,3.243,24.144a4.927,4.927,0,0,1-3.243,4.759h0Z" transform="translate(-408.653 -93.986)" fill="#396caa"/>
          </g>
          <g id="Group_103" data-name="Group 103" transform="translate(29.126 124.896)">
            <path id="Path_359" data-name="Path 359" d="M364.013,234.921l5.711-.754,36.868-21.285a5.126,5.126,0,0,1,4.612.19l26.124,15.078,3.452-.456v3.438h0a1.347,1.347,0,0,1-.793,1.211L398.2,256.466a5.124,5.124,0,0,1-4.61-.191l-28.451-16.42a1.861,1.861,0,0,1-1.128-1.552h0Z" transform="translate(-364.012 -209.173)" fill="#173d7a"/>
            <path id="Path_360" data-name="Path 360" d="M364.012,220.235l2.62-1.512h28.8l14.2,8.191,3.452-.456V229.9h0a1.347,1.347,0,0,1-.793,1.211L370.5,255.23a4.316,4.316,0,0,1-2.379.445Z" transform="translate(-336.31 -207.936)" fill="#396caa"/>
            <path id="Path_361" data-name="Path 361" d="M364.012,225.391l1.532-.2v3.438h0a1.347,1.347,0,0,1-.793,1.211l-.737.425Z" transform="translate(-288.776 -206.667)" fill="#5793ce"/>
            <path id="Path_362" data-name="Path 362" d="M403.874,250.4a5.356,5.356,0,0,1-3.919-.243v-5.85h3.919Z" transform="translate(-370.103 -202.914)" fill="#274f89"/>
            <path id="Path_363" data-name="Path 363" d="M398.2,253.564l41.782-24.123c1.182-.683,1.034-1.875-.331-2.663l-28.45-16.42a5.126,5.126,0,0,0-4.612-.191l-41.782,24.123c-1.182.683-1.034,1.875.331,2.663l28.451,16.42A5.124,5.124,0,0,0,398.2,253.564Z" transform="translate(-364.01 -209.706)" fill="#fff"/>
            <path id="Path_364" data-name="Path 364" d="M389.436,248.46,424.176,228.4c.983-.567.86-1.558-.275-2.213l-15.245-8.574a4.261,4.261,0,0,0-3.834-.158L370.08,237.515c-.982.568-.859,1.559.276,2.214L385.6,248.3A4.258,4.258,0,0,0,389.436,248.46Z" transform="translate(-354.538 -208.26)" fill="#d4ecff"/>
          </g>
          <path id="Path_365" data-name="Path 365" d="M398.194,209.827l.433,2.883a21.312,21.312,0,0,1-.189,7.392l-.514,2.541a3.572,3.572,0,0,1-2.863,2.806h0a1.971,1.971,0,0,1-2.311-1.72l-.689-6.163s-1.577,2.067-2.339,2.067.852-6.173,2.574-9.666S398.194,209.827,398.194,209.827Z" transform="translate(-323.493 -85.071)" fill="#ffc2b0"/>
          <path id="Path_366" data-name="Path 366" d="M387.817,172.715l4.484,8.874a17.386,17.386,0,0,1,1.834,6.735l1.948,30.349,5.9-.14,2.677-34.083a12.524,12.524,0,0,0-.152-3.151l-3.059-17.284Z" transform="translate(-327.279 -93.778)" fill="#ffc2b0"/>
          <g id="Group_104" data-name="Group 104" transform="translate(61.974 106.823)">
            <path id="Path_367" data-name="Path 367" d="M363.924,258.845l3.5-4.573,36.841-21.329a5.125,5.125,0,0,0,2.134-4.092l-.031-30.161,2.117-2.766-1.989-1.153,0,0a1.343,1.343,0,0,0-1.445.083L363.3,219.029a5.123,5.123,0,0,0-2.134,4.091l.035,32.848a1.861,1.861,0,0,0,.781,1.751h0Z" transform="translate(-361.167 -194.599)" fill="#173d7a"/>
            <path id="Path_368" data-name="Path 368" d="M388.841,241.549l2.617-1.516,14.367-24.955-.014-16.39,2.117-2.766-1.989-1.153,0,0a1.343,1.343,0,0,0-1.445.083L362.74,219.029a4.324,4.324,0,0,0-1.573,1.84Z" transform="translate(-360.606 -194.599)" fill="#396caa"/>
            <path id="Path_369" data-name="Path 369" d="M364.4,197.149l.939-1.227-1.989-1.153,0,0a1.343,1.343,0,0,0-1.445.083l-.736.426Z" transform="translate(-318.016 -194.599)" fill="#5793ce"/>
            <path id="Path_370" data-name="Path 370" d="M397.416,215.244a5.351,5.351,0,0,0-1.744,3.517l4.08,2.355,1.955-3.395Z" transform="translate(-395.661 -190.547)" fill="#274f89"/>
            <path id="Path_371" data-name="Path 371" d="M362.692,219.991l41.751-24.173c1.182-.684,2.141.039,2.142,1.615l.036,32.848a5.13,5.13,0,0,1-2.135,4.092l-41.752,24.173c-1.181.684-2.14-.039-2.143-1.615l-.035-32.848A5.123,5.123,0,0,1,362.692,219.991Z" transform="translate(-358.569 -194.41)" fill="#5793ce"/>
          </g>
          <path id="Path_372" data-name="Path 372" d="M402.932,222.048l.669,1.385a9.279,9.279,0,0,0,3.49,3.869l4.147,2.556a4.13,4.13,0,0,0,4.234.1l.141-.085a2.5,2.5,0,0,0,.353-3.834l-4.334-4.455s2.434,1.865,3.117,1.114c.5-.55-2.361-3.237-4.559-3.324a8.673,8.673,0,0,1-4.322-1.815Z" transform="translate(-357.364 -83.27)" fill="#ffc2b0"/>
          <path id="Path_373" data-name="Path 373" d="M390.052,137.3s15.888,17.287,22.3,33.146c0,0-5.432,9.788-18.731,13.628S390.052,137.3,390.052,137.3Z" transform="translate(-333.495 -99.022)" fill="#5793ce"/>
          <path id="Path_374" data-name="Path 374" d="M399.43,179.619l-2.576-24.875,6.067,23.306A34.5,34.5,0,0,1,399.43,179.619Z" transform="translate(-336.316 -95.598)" fill="#396caa"/>
        </g>
        <path id="Path_376" data-name="Path 376" d="M349.43,106.358A11.958,11.958,0,1,0,337.472,94.4,11.972,11.972,0,0,0,349.43,106.358Zm0-21.307a9.348,9.348,0,1,1-9.348,9.349A9.358,9.358,0,0,1,349.43,85.051Z" transform="translate(-97.634 -81.993)" fill="#d4ecff"/>
        <path id="Path_377" data-name="Path 377" d="M550.944,177.249a8.48,8.48,0,1,0-8.479-8.479A8.49,8.49,0,0,0,550.944,177.249Zm0-14.349a5.869,5.869,0,1,1-5.869,5.87A5.876,5.876,0,0,1,550.944,162.9Z" transform="translate(-540.897 -66.714)" fill="#5793ce"/>
        <path id="Path_378" data-name="Path 378" d="M324.033,305.392l5.756-11.705-11.705-5.755-5.756,11.705Zm2.263-10.516-3.452,7.024-7.023-3.452,3.452-7.023Z" transform="translate(-35.955 -41.662)" fill="#5793ce"/>
        <path id="Path_379" data-name="Path 379" d="M466.06,153.718l5.755-11.708-11.706-5.755-5.755,11.707Zm2.263-10.518-3.452,7.024-7.023-3.452,3.451-7.024Z" transform="translate(-347.883 -71.431)" fill="#5793ce"/>
        <rect id="Rectangle_78" data-name="Rectangle 78" width="5.997" height="5.997" transform="matrix(-0.897, -0.441, 0.441, -0.897, 306.533, 200.37)" fill="#5793ce"/>
        <g id="Group_108" data-name="Group 108" transform="translate(90.305 0)">
          <g id="Group_106" data-name="Group 106" transform="translate(0)">
            <path id="Path_380" data-name="Path 380" d="M452.174,100.833,484.16,82.366a1.636,1.636,0,0,1,1.653-.133l0-.02,3.1,1.792-2.181.8V108.1a6.165,6.165,0,0,1-2.573,4.918l-30.573,17.651V133.4l-3.134-1.805.017-.006a2.281,2.281,0,0,1-.87-2.052V105.751A6.163,6.163,0,0,1,452.174,100.833Z" transform="translate(-449.6 -82.067)" fill="#007e85"/>
            <path id="Path_381" data-name="Path 381" d="M451.355,133l31.986-18.468a6.164,6.164,0,0,0,2.574-4.917V85.836c0-1.895-1.153-2.767-2.574-1.946l-31.986,18.468a6.164,6.164,0,0,0-2.574,4.917v23.784C448.781,132.955,449.934,133.825,451.355,133Z" transform="translate(-445.622 -81.77)" fill="#00a4ae"/>
          </g>
          <g id="Group_107" data-name="Group 107" transform="translate(13.887 20.539)">
            <path id="Path_382" data-name="Path 382" d="M456.316,103.269c0,1.376.967,1.934,2.159,1.245a4.77,4.77,0,0,0,2.158-3.737c0-1.377-.967-1.934-2.158-1.247A4.769,4.769,0,0,0,456.316,103.269Z" transform="translate(-443.241 -99.236)" fill="#fff"/>
            <path id="Path_383" data-name="Path 383" d="M461.782,106.424c0,1.377.967,1.934,2.158,1.247a4.769,4.769,0,0,0,2.158-3.738c0-1.376-.965-1.934-2.158-1.247A4.774,4.774,0,0,0,461.782,106.424Z" transform="translate(-455.245 -98.616)" fill="#fff"/>
            <path id="Path_384" data-name="Path 384" d="M467.247,109.58c0,1.376.965,1.933,2.158,1.245a4.77,4.77,0,0,0,2.158-3.738c0-1.376-.967-1.933-2.158-1.245A4.767,4.767,0,0,0,467.247,109.58Z" transform="translate(-467.247 -97.997)" fill="#fff"/>
          </g>
        </g>
        <g id="Group_111" data-name="Group 111" transform="translate(311.47 202.709)">
          <g id="Group_109" data-name="Group 109" transform="translate(0)">
            <path id="Path_385" data-name="Path 385" d="M267.868,269.929l31.379-18.116a1.6,1.6,0,0,1,1.622-.13l0-.02,3.045,1.759-2.139.781v22.852a6.045,6.045,0,0,1-2.525,4.823l-29.993,17.317v2.681l-3.076-1.771.017-.006a2.238,2.238,0,0,1-.853-2.012V274.753A6.047,6.047,0,0,1,267.868,269.929Z" transform="translate(-265.343 -251.518)" fill="#5793ce"/>
            <path id="Path_386" data-name="Path 386" d="M267.065,301.49l31.379-18.117a6.045,6.045,0,0,0,2.525-4.825V255.216c0-1.86-1.13-2.714-2.525-1.909l-31.379,18.117a6.045,6.045,0,0,0-2.525,4.823v23.333C264.54,301.44,265.67,302.3,267.065,301.49Z" transform="translate(-261.44 -251.227)" fill="#d4ecff"/>
          </g>
          <g id="Group_110" data-name="Group 110" transform="translate(13.623 20.149)">
            <path id="Path_387" data-name="Path 387" d="M271.932,272.318c0,1.349.947,1.9,2.117,1.221a4.681,4.681,0,0,0,2.117-3.667c0-1.351-.949-1.9-2.117-1.223A4.678,4.678,0,0,0,271.932,272.318Z" transform="translate(-259.103 -268.361)" fill="#fff"/>
            <path id="Path_388" data-name="Path 388" d="M277.294,275.413c0,1.351.949,1.9,2.117,1.223a4.678,4.678,0,0,0,2.117-3.668c0-1.349-.947-1.9-2.117-1.221A4.681,4.681,0,0,0,277.294,275.413Z" transform="translate(-270.88 -267.754)" fill="#fff"/>
            <path id="Path_389" data-name="Path 389" d="M282.656,278.509c0,1.349.949,1.9,2.117,1.221a4.676,4.676,0,0,0,2.117-3.667c0-1.351-.947-1.9-2.117-1.223A4.683,4.683,0,0,0,282.656,278.509Z" transform="translate(-282.656 -267.146)" fill="#fff"/>
          </g>
        </g>
      </g>
    </g>
  </g>
</svg>
