<svg xmlns="http://www.w3.org/2000/svg" width="208.087" height="68.323" viewBox="0 0 208.087 68.323">
    <defs>
        <style>
            .cls-1{fill:#edca1f}.cls-2{fill:#00a4ae}.cls-3{fill:#ba2132}.cls-4{fill:#343434}.cls-5{fill:#a5a6a9}
        </style>
    </defs>
    <g id="Logo" transform="translate(-14.18 -1)">
        <path id="Path_1" d="M368.19 26.153a10.642 10.642 0 0 0-1.282-.083H355.23v10.5a11.3 11.3 0 0 0 .157 1.911 11.711 11.711 0 0 0 7.7 9.129 13.529 13.529 0 0 1 3.822-.546H377.4V36.569a10.508 10.508 0 0 0-9.213-10.416z" class="cls-1" transform="translate(-190.862 -13.47)"/>
        <path id="Path_2" d="M342.588 54a12.036 12.036 0 0 0-1.3 1.129l-8.523 8.518 8.537 8.537.282.268a13.71 13.71 0 0 1 8.278-9.444A12.493 12.493 0 0 1 342.588 54z" class="cls-1" transform="translate(-178.789 -28.476)"/>
        <path id="Path_3" d="M451.965 56.1l-.282-.268a13.71 13.71 0 0 1-8.283 9.444 12.493 12.493 0 0 1 7.265 9.023 11.844 11.844 0 0 0 1.3-1.124l8.537-8.537z" class="cls-2" transform="translate(-238.235 -29.46)"/>
        <path id="Path_4" d="M424.3 77.09a13.632 13.632 0 0 1-3.813.541H410v10.495a10.508 10.508 0 0 0 9.213 10.416 10.642 10.642 0 0 0 1.282.083h11.669V88.153a11.9 11.9 0 0 0-.157-1.916 11.706 11.706 0 0 0-7.707-9.147z" class="cls-2" transform="translate(-220.29 -40.883)"/>
        <path id="Path_5" d="M405.969 10.814a12.6 12.6 0 0 0-1.1-1.254L396.335 1 387.8 9.56c-.093.088-.18.185-.268.282a13.7 13.7 0 0 1 9.435 8.245 12.53 12.53 0 0 1 9-7.274z" class="cls-3" transform="translate(-208.217)"/>
        <path id="Path_6" d="M419.825 23.4a11.679 11.679 0 0 0-11.045 7.866 13.6 13.6 0 0 1 .555 3.854v10.508h10.494a10.513 10.513 0 0 0 10.416-9.208 10.724 10.724 0 0 0 .079-1.286V23.4z" class="cls-3" transform="translate(-219.634 -12.035)"/>
        <path id="Path_7" d="M44.283 44.2a4.159 4.159 0 0 1-4.151 4.147h-9.61a11.625 11.625 0 0 0 1.4-5.009V31.3H0v6.153h1.316a5.561 5.561 0 0 1 5.553 5.557 11.62 11.62 0 0 0 1.749 5.908 12.36 12.36 0 0 0 3.767 24.14h19.53v-6.125h18.518v-6.157H31.919V66.9h-19.53a6.207 6.207 0 1 1 0-12.409h27.743A10.325 10.325 0 0 0 50.441 44.2V31.21h-6.158zm-18.5-1.757v.323a5.561 5.561 0 0 1-5.557 5.557h-.323v.025H18.9v-.025h-.323a5.561 5.561 0 0 1-5.553-5.557v-.323h-.02a11.649 11.649 0 0 0-1.385-4.985h14.167z" class="cls-4" transform="translate(14.18 -13.721)"/>
        <ellipse id="Ellipse_1" cx="3.751" cy="3.743" class="cls-4" rx="3.751" ry="3.743" transform="rotate(-45.06 106.26 -64.604)"/>
        <path id="Path_8" d="M193.1 28.649h-6.468l-6.129 6.129V16.22h-6.129v24.708l-4.723 4.719h-3.518a4.155 4.155 0 0 1-4.151-4.151V28.649h-6.153V41.5a4.155 4.155 0 0 1-4.151 4.151h-8.2V16.228h-6.148V51.8h14.35a10.264 10.264 0 0 0 7.228-2.983 10.276 10.276 0 0 0 7.228 2.97h38.6V40.176A11.387 11.387 0 0 0 201.312 32a11.641 11.641 0 0 0-8.212-3.351zm5.483 17.01h-20.23L189.2 34.815h3.9a5.369 5.369 0 0 1 5.483 5.369z" class="cls-4" transform="translate(-67.038 -4.855)"/>
        <path id="Rectangle_3" d="M0 0H1.679V9.353H0z" class="cls-4" transform="translate(81.782 11.365)"/>
        <path id="Path_9" d="M394.645 111.47a12.521 12.521 0 0 1-8.995 7.352 12.62 12.62 0 0 0 1.138 1.319l8.537 8.537 8.532-8.537c.093-.093.176-.19.268-.287a13.706 13.706 0 0 1-9.48-8.384z" class="cls-5" transform="translate(-207.207 -59.355)"/>
        <path id="Path_10" d="M379.3 92.437a13.6 13.6 0 0 1-.5-3.7V78.26h-10.494a10.508 10.508 0 0 0-10.4 9.212 10.724 10.724 0 0 0-.079 1.286v11.679h10.406a11.679 11.679 0 0 0 11.1-8z" class="cls-5" transform="translate(-192.259 -41.511)"/>
    </g>
</svg>
